<svg version="1.1" xmlns="http://www.w3.org/2000/svg" viewBox="0 0 150 150">
<defs>
 <pattern id="p1" x="0" y="0" width="4" height="4" patternUnits="userSpaceOnUse">
  <circle cx="1" cy="1" r="1" fill="#fc9"/>
  <circle cx="3" cy="3" r="1" fill="#fc9"/>
 </pattern>
 <pattern id="p2" x="0" y="0" width="2" height="4" patternUnits="userSpaceOnUse">
  <circle cx=".5" cy="1" r=".5" fill="#f6c"/>
  <circle cx="1.5" cy="3" r=".5" fill="#f6c"/>
 </pattern>
 <pattern id="p3" x="0" y="0" width="2" height="2" patternUnits="userSpaceOnUse">
  <line x1="0" y1="1" x2="2" y2="1" stroke="#999"/>
  <line x1="1" y1="0" x2="1" y2="2" stroke="#999"/>
 </pattern>
</defs>
<ellipse cx="75" cy="75" rx="66" ry="66" fill="#fff" stroke="blue" stroke-width="15"/>
<g transform="scale(0.664 1)">
<rect x="70" y="30" width="90" height="4"/>
<rect x="65" y="34" width="5" height="4"/>
<polygon points="70,34 160,34 160,38 165,38 165,58 155,58 155,46 150,46 150,38 75,38 75,46 70,46 70,86 75,86 75,94 130,94 130,98 70,98 70,94 65,94 65,38 70,38" fill="url(#p1)"/>
<rect x="160" y="34" width="5" height="4"/>
<polygon points="60,38 65,38 65,94 70,94 70,98 130,98 130,94 180,94 180,98 170,98 170,110 155,110 155,106 165,106 165,98 160,98 160,102 155,102 155,106 150,106 150,102 145,102 145,106 140,106 140,102 130,102 130,106 140,106 140,110 125,110 125,102 90,102 90,106 85,106 85,102 75,102 75,106 85,106 85,110 70,110 70,102 65,102 65,98 60,98 60,94 55,94 55,90 60,90 60,82 50,82 50,78 60,78 60,70 45,70 45,62 50,62 50,66 60,66"/>
<polygon points="75,38 150,38 150,46 155,46 155,58 145,58 145,54 140,54 140,50 135,50 135,46 125,46 125,50 120,50 120,66 115,66 115,86 120,86 120,90 125,90 125,94 75,94 75,86 70,86 70,46 75,46" fill="url(#p2)"/>
<polygon points="165,38 170,38 170,50 175,50 175,54 170,54 170,58 165,58"/>
<rect x="125" y="46" width="10" height="4"/>
<rect x="175" y="46" width="10" height="4"/>
<rect x="120" y="50" width="5" height="16"/>
<polygon points="125,50 135,50 135,54 140,54 140,58 145,58 145,62 165,62 165,58 170,58 170,54 175,54 175,50 185,50 185,66 190,66 190,78 180,78 180,70 170,70 170,78 180,78 180,86 185,86 185,90 180,90 180,94 130,94 130,90 125,90 125,86 135,86 135,78 145,78 145,70 135,70 135,78 125,78 125,86 120,86 120,66 125,66 125,54 130,54 130,58 135,58 135,62 140,62 140,66 165,66 165,74 160,74 160,78 165,78 165,82 170,82 170,86 160,86 160,82 155,82 155,86 145,86 145,82 140,82 140,90 175,90 175,82 165,82 165,66 140,66 140,62 135,62 135,58 130,58 130,54 125,54" fill="url(#p3)"/>
<rect x="135" y="50" width="5" height="4"/>
<rect x="185" y="50" width="5" height="16"/>
<rect x="140" y="54" width="5" height="4"/>
<polygon points="35,58 45,58 45,62 35,62"/>
<rect x="145" y="58" width="20" height="4"/>
<rect x="30" y="62" width="5" height="8"/>
<polygon points="35,62 45,62 45,70 60,70 60,78 50,78 50,74 40,74 40,70 35,70" fill="url(#p3)"/>
<rect x="115" y="66" width="5" height="20"/>
<rect x="190" y="66" width="5" height="20"/>
<rect x="35" y="70" width="5" height="4"/>
<polygon points="140,70 145,70 145,78 135,78 135,74 140,74"/>
<polygon points="175,70 180,70 180,78 170,78 170,74 175,74"/>
<polygon points="40,74 50,74 50,78 40,78"/>
<rect x="160" y="74" width="5" height="4"/>
<rect x="125" y="78" width="10" height="8" fill="url(#p2)"/>
<rect x="180" y="78" width="10" height="8" fill="url(#p2)"/>
<polygon points="140,82 145,82 145,86 155,86 155,82 160,82 160,86 170,86 170,82 175,82 175,90 140,90"/>
<rect x="120" y="86" width="5" height="4"/>
<rect x="185" y="86" width="5" height="4"/>
<rect x="125" y="90" width="5" height="4"/>
<rect x="180" y="90" width="5" height="4"/>
<rect x="50" y="94" width="5" height="4"/>
<polygon points="55,94 60,94 60,98 65,98 65,102 60,102 60,106 50,106 50,98 55,98" fill="url(#p3)"/>
<polygon points="45,98 50,98 50,106 60,106 60,110 45,110"/>
<polygon points="160,98 165,98 165,106 155,106 155,102 160,102" fill="url(#p3)"/>
<rect x="60" y="102" width="5" height="4"/>
<rect x="75" y="102" width="10" height="4" fill="url(#p3)"/>
<rect x="130" y="102" width="10" height="4" fill="url(#p3)"/>
</g>
</svg>
